# 3ds Max Wavefront OBJ Exporter v0.97b - (c)2007 guruware
# File Created: 18.01.2014 12:14:44

mtllib SeeleSchneider.mtl

#
# object pCube1
#

v  -2.3079 14.9120 1.4696
v  -4.6535 17.4771 2.5710
v  -4.1372 14.9120 1.4696
v  -2.8712 8.7689 1.8646
v  -4.7061 8.7689 1.8646
v  -1.3522 2.7047 1.4696
v  -2.8605 0.1789 1.4696
v  -0.4114 72.8298 2.4633
v  -4.2858 72.8071 2.1173
v  -0.4114 72.8071 2.1173
v  -4.6535 72.8298 2.4633
v  -4.2858 72.2789 2.1173
v  -0.4114 72.2789 2.1173
v  -0.4114 72.2562 2.4633
v  -4.6535 72.2562 2.4633
v  -4.6535 68.2406 2.4633
v  -0.4114 68.2406 2.4633
v  -4.3565 67.7851 2.1721
v  -0.4114 67.7851 2.1721
v  -4.3565 19.8176 2.1721
v  4.3581 19.8176 2.1721
v  -0.4114 21.1585 2.1721
v  -5.6685 19.1793 3.2901
v  5.6701 19.1793 3.2901
v  5.1087 17.6576 2.9643
v  -5.1071 17.6576 2.9643
v  4.6551 17.4771 2.5710
v  2.3095 14.9120 1.4696
v  0.4130 72.8071 2.1173
v  -0.4114 76.8454 2.1173
v  0.4130 76.8454 2.1173
v  0.4130 72.2789 2.1173
v  0.4130 68.2406 2.1173
v  -0.4114 68.2406 2.1173
v  0.4130 67.7851 1.8105
v  -0.4114 67.7851 1.8105
v  0.4130 21.1585 2.1721
v  4.1389 14.9120 1.4696
v  2.8728 8.7689 1.8646
v  4.7077 8.7689 1.8646
v  1.3538 2.7047 1.4696
v  2.8621 0.1789 1.4696
v  0.4130 72.8298 2.4633
v  4.2874 72.8071 2.1173
v  4.6551 72.8298 2.4633
v  4.2874 72.2789 2.1173
v  0.4130 72.2562 2.4633
v  4.6551 72.2562 2.4633
v  4.6551 68.2406 2.4633
v  0.4130 68.2406 2.4633
v  4.3581 67.7851 2.1721
v  0.4130 67.7851 2.1721
v  5.6701 19.1793 -3.3071
v  4.3581 19.8176 -2.1890
v  4.3581 67.7851 -2.1890
v  4.6551 68.2406 -2.4803
v  4.6551 72.2562 -2.4803
v  4.2874 72.2789 -2.1342
v  4.2874 72.8071 -2.1342
v  4.6551 72.8298 -2.4803
v  4.6551 76.8454 2.4633
v  4.6551 76.8454 -2.4803
v  4.7077 8.7689 -1.8769
v  2.8621 0.1789 -1.4819
v  4.1389 14.9120 -1.4819
v  4.6551 17.4771 -2.5926
v  5.1087 17.6576 -2.9812
v  -0.4114 76.8454 2.4633
v  -4.6535 76.8454 2.4633
v  0.4130 76.8454 2.4633
v  0.4130 76.8454 -2.4803
v  0.4130 76.8454 -2.1343
v  0.4130 21.1585 1.8105
v  -0.4114 21.1585 1.8105
v  -2.3079 14.9120 -1.4819
v  -4.1372 14.9120 -1.4819
v  -4.6535 17.4771 -2.5926
v  -2.8712 8.7689 -1.8769
v  -4.7061 8.7689 -1.8769
v  -1.3522 2.7047 -1.4819
v  -2.8605 0.1789 -1.4819
v  -4.2858 72.8071 -2.1342
v  -0.4114 72.8298 -2.4803
v  -0.4114 72.8071 -2.1342
v  -4.6535 72.8298 -2.4803
v  -4.2858 72.2789 -2.1342
v  -0.4114 72.2789 -2.1342
v  -0.4114 72.2562 -2.4803
v  -4.6535 72.2562 -2.4803
v  -4.6535 68.2406 -2.4803
v  -0.4114 68.2406 -2.4803
v  -4.3565 67.7851 -2.1890
v  -0.4114 67.7851 -2.1890
v  0.4130 72.8071 -2.1342
v  -0.4114 76.8454 -2.1343
v  0.4130 72.2789 -2.1342
v  0.4130 68.2406 -2.1342
v  -0.4114 68.2406 -2.1342
v  0.4130 67.7851 -1.8275
v  -0.4114 67.7851 -1.8275
v  -0.4114 21.1585 -2.1890
v  0.4130 21.1585 -2.1890
v  -4.3565 19.8176 -2.1890
v  -5.6685 19.1793 -3.3071
v  -5.1071 17.6576 -2.9812
v  2.3095 14.9120 -1.4819
v  2.8728 8.7689 -1.8769
v  1.3538 2.7047 -1.4819
v  0.4130 72.8298 -2.4803
v  0.4130 72.2562 -2.4803
v  0.4130 68.2406 -2.4803
v  0.4130 67.7851 -2.1890
v  -0.4114 76.8454 -2.4803
v  -4.6535 76.8454 -2.4803
v  0.4130 21.1585 -1.8275
v  -0.4114 21.1585 -1.8275
# 116 vertices

vn -0.0000 -0.3945 0.9189
vn -0.0000 0.0642 0.9979
vn -0.0000 -0.0650 0.9979
vn 0.0565 -0.0337 0.9978
vn -0.0000 -0.9979 0.0654
vn -0.0000 -0.9979 0.0653
vn -0.0000 -0.0000 1.0000
vn 0.0000 0.9979 0.0653
vn -0.0000 0.9979 0.0654
vn -0.0000 -0.5387 0.8425
vn -0.0000 0.0000 1.0000
vn -0.0000 0.8684 0.4958
vn -0.0000 -0.2094 0.9778
vn -0.0000 -0.9089 0.4170
vn 0.3087 -0.9035 0.2974
vn 0.5723 -0.3673 0.7332
vn -0.0000 -0.5586 0.8295
vn 1.0000 -0.0000 0.0000
vn 1.0000 0.0000 -0.0000
vn 1.0000 -0.0000 -0.0000
vn -0.0565 -0.0337 0.9978
vn 0.0000 -0.9979 0.0654
vn -0.0000 0.9979 0.0653
vn 0.0000 -0.0000 1.0000
vn 0.0000 -0.5387 0.8425
vn -1.0000 0.0000 -0.0000
vn -1.0000 0.0000 0.0000
vn -1.0000 -0.0000 0.0000
vn -1.0000 -0.0000 -0.0000
vn 0.4375 0.8992 0.0000
vn 1.0000 0.0000 0.0000
vn 0.8376 -0.5462 -0.0000
vn 0.0615 0.9981 0.0000
vn 0.0615 -0.9981 -0.0000
vn 0.0284 -0.4604 -0.8872
vn 0.9777 -0.2101 0.0000
vn 0.7963 -0.2081 -0.5680
vn 0.9957 0.0922 0.0000
vn 0.9803 -0.1973 0.0000
vn 0.1463 -0.5446 -0.8258
vn 0.3697 -0.9291 -0.0000
vn 0.3082 -0.9035 -0.2976
vn 0.9382 -0.3461 0.0000
vn -0.0000 1.0000 0.0000
vn 0.0000 0.4282 -0.9037
vn 0.0000 -0.3973 -0.9177
vn 0.0000 0.0642 -0.9979
vn -0.0000 0.0642 -0.9979
vn -0.0000 -0.0650 -0.9979
vn 0.0565 -0.0337 -0.9978
vn -0.0000 -0.9979 -0.0654
vn -0.0000 -0.9979 -0.0653
vn 0.0000 0.0000 -1.0000
vn 0.0000 0.9979 -0.0654
vn 0.0000 0.9979 -0.0653
vn -0.0000 0.0000 -1.0000
vn 0.0000 -0.5387 -0.8425
vn -0.0000 -0.5387 -0.8425
vn 0.0000 -0.0000 -1.0000
vn 0.0000 -0.5586 -0.8295
vn -0.4375 0.8992 0.0000
vn -0.8376 -0.5462 -0.0000
vn -0.0615 0.9981 0.0000
vn -0.0615 -0.9981 -0.0000
vn -0.9777 -0.2101 -0.0000
vn -0.9957 0.0922 -0.0000
vn -0.9803 -0.1973 -0.0000
vn -0.3697 -0.9291 -0.0000
vn -0.9382 -0.3461 -0.0000
vn 0.0000 -0.0650 -0.9979
vn -0.0565 -0.0337 -0.9978
vn 0.0000 -0.9979 -0.0654
vn 0.0000 -0.9979 -0.0653
vn -0.0000 0.9979 -0.0653
vn -0.0000 0.6836 -0.7299
vn -0.0000 0.4221 -0.9065
vn 0.0000 0.8684 -0.4958
vn 0.0000 -0.2094 -0.9778
vn 0.0000 -0.9070 -0.4212
vn 0.5724 -0.3695 -0.7321
vn 0.0000 -1.0000 -0.0000
vn -0.9958 -0.0913 -0.0000
vn 0.9958 -0.0913 0.0000
vn -0.9700 0.2430 -0.0000
vn 0.9700 0.2430 0.0000
# 85 vertex normals

vt 0.6190 0.4859 0.0000
vt 0.6526 0.4493 0.0000
vt 0.6452 0.4859 0.0000
vt 0.6271 0.5738 0.0000
vt 0.6534 0.5738 0.0000
vt 0.6054 0.6606 0.0000
vt 0.6270 0.6967 0.0000
vt 0.5577 0.0783 0.0000
vt 0.6180 0.0786 0.0000
vt 0.5594 0.0786 0.0000
vt 0.6162 0.0783 0.0000
vt 0.6180 0.0860 0.0000
vt 0.5594 0.0860 0.0000
vt 0.5577 0.0863 0.0000
vt 0.6162 0.0863 0.0000
vt 0.6162 0.1426 0.0000
vt 0.5577 0.1426 0.0000
vt 0.6178 0.1490 0.0000
vt 0.5591 0.1490 0.0000
vt 0.3414 0.5285 0.0000
vt 0.2268 0.5285 0.0000
vt 0.2923 0.5116 0.0000
vt 0.2704 0.7645 0.0000
vt 0.1578 0.7645 0.0000
vt 0.1632 0.7468 0.0000
vt 0.2647 0.7468 0.0000
vt 0.1601 0.7827 0.0000
vt 0.2673 0.7827 0.0000
vt 0.1617 0.7875 0.0000
vt 0.2654 0.7875 0.0000
vt 0.5530 0.4859 0.0000
vt 0.5194 0.4493 0.0000
vt 0.5349 0.0786 0.0000
vt 0.5594 0.0220 0.0000
vt 0.5349 0.0220 0.0000
vt 0.5349 0.0860 0.0000
vt 0.5349 0.1426 0.0000
vt 0.5594 0.1426 0.0000
vt 0.5329 0.1490 0.0000
vt 0.5614 0.1490 0.0000
vt 0.2760 0.5116 0.0000
vt 0.5268 0.4859 0.0000
vt 0.5449 0.5738 0.0000
vt 0.5187 0.5738 0.0000
vt 0.5667 0.6606 0.0000
vt 0.5451 0.6967 0.0000
vt 0.5366 0.0783 0.0000
vt 0.4763 0.0786 0.0000
vt 0.4780 0.0783 0.0000
vt 0.4763 0.0860 0.0000
vt 0.5366 0.0863 0.0000
vt 0.4780 0.0863 0.0000
vt 0.4780 0.1426 0.0000
vt 0.5366 0.1426 0.0000
vt 0.4765 0.1490 0.0000
vt 0.5352 0.1490 0.0000
vt 0.0871 0.7645 0.0000
vt 0.1033 0.7468 0.0000
vt 0.2266 0.0030 0.0000
vt 0.1731 0.5286 0.0000
vt 0.1728 0.0030 0.0000
vt 0.4173 0.1490 0.0000
vt 0.4157 0.1426 0.0000
vt 0.4157 0.0863 0.0000
vt 0.4175 0.0860 0.0000
vt 0.4175 0.0786 0.0000
vt 0.4157 0.0783 0.0000
vt 0.4780 0.0220 0.0000
vt 0.4157 0.0220 0.0000
vt 0.2438 0.8225 0.0000
vt 0.1492 0.8576 0.0000
vt 0.1495 0.8175 0.0000
vt 0.2436 0.8542 0.0000
vt 0.0832 0.8212 0.0000
vt 0.0830 0.8529 0.0000
vt 0.0552 0.8091 0.0000
vt 0.0547 0.8646 0.0000
vt 0.0898 0.7827 0.0000
vt 0.0945 0.7875 0.0000
vt 0.5577 0.0220 0.0000
vt 0.6162 0.0220 0.0000
vt 0.5366 0.0220 0.0000
vt 0.4547 0.3137 0.0000
vt 0.4547 0.3904 0.0000
vt 0.4485 0.3137 0.0000
vt 0.3653 0.3904 0.0000
vt 0.3653 0.3137 0.0000
vt 0.3716 0.3137 0.0000
vt 0.2753 0.0031 0.0000
vt 0.2797 0.0031 0.0000
vt 0.2798 0.5115 0.0000
vt 0.2899 0.0031 0.0000
vt 0.2885 0.5115 0.0000
vt 0.2944 0.0031 0.0000
vt 0.3430 0.0032 0.0000
vt 0.2775 0.4946 0.0000
vt 0.2915 0.4946 0.0000
vt 0.2915 0.5007 0.0000
vt 0.2775 0.5007 0.0000
vt 0.4764 0.6600 0.0000
vt 0.5025 0.6600 0.0000
vt 0.5099 0.6967 0.0000
vt 0.4844 0.5721 0.0000
vt 0.5107 0.5721 0.0000
vt 0.4627 0.4854 0.0000
vt 0.4843 0.4493 0.0000
vt 0.6768 0.0786 0.0000
vt 0.7371 0.0783 0.0000
vt 0.7354 0.0786 0.0000
vt 0.6785 0.0783 0.0000
vt 0.6768 0.0860 0.0000
vt 0.7354 0.0860 0.0000
vt 0.7371 0.0863 0.0000
vt 0.6785 0.0863 0.0000
vt 0.6785 0.1426 0.0000
vt 0.7371 0.1426 0.0000
vt 0.6770 0.1490 0.0000
vt 0.7357 0.1490 0.0000
vt 0.7599 0.0220 0.0000
vt 0.7599 0.0786 0.0000
vt 0.7354 0.0220 0.0000
vt 0.7599 0.0860 0.0000
vt 0.7599 0.1426 0.0000
vt 0.7354 0.1426 0.0000
vt 0.7619 0.1490 0.0000
vt 0.7334 0.1490 0.0000
vt 0.1076 0.5120 0.0000
vt 0.1239 0.5119 0.0000
vt 0.0585 0.5292 0.0000
vt 0.3105 0.7645 0.0000
vt 0.3171 0.7468 0.0000
vt 0.0564 0.0028 0.0000
vt 0.0025 0.0028 0.0000
vt 0.0019 0.5293 0.0000
vt 0.3993 0.8595 0.0000
vt 0.3053 0.8229 0.0000
vt 0.3996 0.8194 0.0000
vt 0.3050 0.8546 0.0000
vt 0.4656 0.8557 0.0000
vt 0.4658 0.8240 0.0000
vt 0.4940 0.8124 0.0000
vt 0.4937 0.8678 0.0000
vt 0.3144 0.7827 0.0000
vt 0.3169 0.7875 0.0000
vt 0.4103 0.6600 0.0000
vt 0.3768 0.6967 0.0000
vt 0.3841 0.6600 0.0000
vt 0.4023 0.5721 0.0000
vt 0.3760 0.5721 0.0000
vt 0.4240 0.4854 0.0000
vt 0.4024 0.4493 0.0000
vt 0.3572 0.0783 0.0000
vt 0.3588 0.0786 0.0000
vt 0.3588 0.0860 0.0000
vt 0.3572 0.0863 0.0000
vt 0.3572 0.1426 0.0000
vt 0.3585 0.1490 0.0000
vt 0.4285 0.7468 0.0000
vt 0.4452 0.7645 0.0000
vt 0.4392 0.7827 0.0000
vt 0.4339 0.7875 0.0000
vt 0.3588 0.1426 0.0000
vt 0.3608 0.1490 0.0000
vt 0.7371 0.0220 0.0000
vt 0.6785 0.0220 0.0000
vt 0.3653 0.2988 0.0000
vt 0.3653 0.2221 0.0000
vt 0.3716 0.2988 0.0000
vt 0.4547 0.2221 0.0000
vt 0.4547 0.2988 0.0000
vt 0.4485 0.2988 0.0000
vt 0.3572 0.0220 0.0000
vt 0.3588 0.0220 0.0000
vt 0.1242 0.0029 0.0000
vt 0.1201 0.5118 0.0000
vt 0.1197 0.0029 0.0000
vt 0.1095 0.0029 0.0000
vt 0.1114 0.5119 0.0000
vt 0.1051 0.0029 0.0000
vt 0.1164 0.5114 0.0000
vt 0.1141 0.5114 0.0000
vt 0.1164 0.5104 0.0000
vt 0.1141 0.5104 0.0000
vt 0.5536 0.9656 0.0000
vt 0.4790 0.9647 0.0000
vt 0.4796 0.9170 0.0000
vt 0.5541 0.9179 0.0000
vt 0.0347 0.9116 0.0000
vt 0.1337 0.9668 0.0000
vt 0.0342 0.9593 0.0000
vt 0.1344 0.9064 0.0000
vt 0.3793 0.9699 0.0000
vt 0.3800 0.9094 0.0000
vt 0.2347 0.9617 0.0000
vt 0.2353 0.9141 0.0000
vt 0.2784 0.9622 0.0000
vt 0.2790 0.9146 0.0000
# 197 texture coords

g pCube1
usemtl Check
s off
f 1/1/1 2/2/1 3/3/1 
f 4/4/2 3/3/2 5/5/2 
f 3/3/2 4/4/2 1/1/2 
f 4/4/3 5/5/3 6/6/3 
s 1
f 6/6/4 5/5/4 7/7/4 
s off
f 8/8/5 9/9/5 10/10/5 
f 9/9/6 8/8/6 11/11/6 
f 10/10/7 12/12/7 13/13/7 
f 12/12/7 10/10/7 9/9/7 
f 14/14/8 12/12/8 15/15/8 
f 12/12/9 14/14/9 13/13/9 
s 1
f 16/16/7 14/14/7 15/15/7 
f 14/14/7 16/16/7 17/17/7 
s off
f 17/17/10 18/18/10 19/19/10 
f 18/18/10 17/17/10 16/16/10 
f 20/20/11 21/21/11 22/22/11 
f 23/23/12 24/24/12 21/25/12 
f 23/23/12 21/25/12 20/26/12 
f 23/23/13 25/27/13 24/24/13 
f 25/27/13 23/23/13 26/28/13 
f 27/29/14 26/28/14 2/30/14 
f 25/27/14 26/28/14 27/29/14 
s 1
f 2/2/1 28/31/1 27/32/15 
f 28/31/1 2/2/1 1/1/16 
s off
f 29/33/7 30/34/7 10/10/7 
f 30/34/7 29/33/7 31/35/7 
f 32/36/7 10/10/7 13/13/7 
f 10/10/7 32/36/7 29/33/7 
f 33/37/7 13/13/7 34/38/7 
f 13/13/7 33/37/7 32/36/7 
f 35/39/17 34/38/17 36/40/17 
f 34/38/17 35/39/17 33/37/17 
f 22/22/7 21/21/7 37/41/7 
f 14/14/18 17/17/18 34/38/18 
f 14/14/19 34/38/19 13/13/19 
f 19/19/18 34/38/18 17/17/18 
f 34/38/20 19/19/20 36/40/20 
f 28/31/1 38/42/1 27/32/1 
f 38/42/2 39/43/2 40/44/2 
f 39/43/2 38/42/2 28/31/2 
f 39/43/3 41/45/3 40/44/3 
f 40/44/21 41/45/21 42/46/21 
f 43/47/6 44/48/6 45/49/6 
f 44/48/22 43/47/22 29/33/22 
f 46/50/7 29/33/7 32/36/7 
f 29/33/7 46/50/7 44/48/7 
f 46/50/23 47/51/23 48/52/23 
f 47/51/9 46/50/9 32/36/9 
f 49/53/7 47/51/7 50/54/7 
f 47/51/24 49/53/24 48/52/24 
f 51/55/25 50/54/25 52/56/25 
f 50/54/10 51/55/10 49/53/10 
s 1
f 32/36/26 33/37/27 47/51/26 
f 50/54/28 47/51/26 33/37/27 
s off
f 52/56/29 33/37/29 35/39/29 
f 33/37/28 52/56/28 50/54/28 
f 24/24/30 53/57/30 21/25/30 
f 21/25/30 53/57/30 54/58/30 
f 51/59/31 21/21/31 54/60/31 
f 51/59/31 54/60/31 55/61/31 
f 55/62/32 49/53/32 51/55/32 
f 56/63/32 49/53/32 55/62/32 
f 49/53/31 56/63/31 48/52/31 
f 48/52/31 56/63/31 57/64/31 
f 48/52/33 57/64/33 46/50/33 
f 46/50/33 57/64/33 58/65/33 
f 46/50/18 58/65/18 44/48/18 
f 44/48/18 58/65/18 59/66/18 
s 1
f 59/66/34 45/49/34 44/48/34 
f 60/67/35 45/49/34 59/66/34 
s off
f 45/49/31 60/67/31 61/68/31 
f 61/68/31 60/67/31 62/69/31 
s 1
f 42/70/36 63/71/37 40/72/36 
f 63/71/37 42/70/36 64/73/36 
s off
f 38/74/38 40/72/38 63/71/38 
f 38/74/38 63/71/38 65/75/38 
f 65/75/39 27/76/39 38/74/39 
f 66/77/39 27/76/39 65/75/39 
s 1
f 27/29/15 67/78/40 25/27/41 
f 67/78/40 27/29/15 66/79/42 
s off
f 67/78/43 24/24/43 25/27/43 
f 24/24/43 67/78/43 53/57/43 
f 8/8/7 68/80/7 11/11/7 
f 11/11/7 68/80/7 69/81/7 
f 45/49/7 70/82/7 43/47/7 
f 70/82/24 45/49/24 61/68/24 
f 70/83/44 61/84/44 31/85/44 
f 61/84/44 62/86/44 31/85/44 
f 71/87/44 72/88/44 62/86/44 
s 1
f 31/85/44 62/86/45 72/88/44 
s off
f 8/8/31 30/34/31 68/80/31 
f 30/34/20 8/8/20 10/10/20 
f 43/47/29 31/35/29 29/33/29 
f 31/35/26 43/47/26 70/82/26 
f 21/21/7 51/59/7 37/41/7 
f 37/41/7 51/59/7 52/89/7 
f 35/90/26 73/91/26 52/89/26 
f 37/41/26 52/89/26 73/91/26 
f 73/91/7 36/92/7 74/93/7 
f 36/92/7 73/91/7 35/90/7 
f 19/94/19 22/22/19 74/93/19 
f 19/94/19 74/93/19 36/92/19 
f 22/22/24 18/95/24 20/20/24 
f 18/95/7 22/22/7 19/94/7 
f 22/96/44 37/97/44 73/98/44 
f 22/96/44 73/98/44 74/99/44 
f 75/100/46 76/101/46 77/102/46 
f 75/100/47 78/103/47 76/101/47 
f 76/101/48 78/103/48 79/104/48 
f 78/103/49 80/105/49 79/104/49 
f 79/104/50 80/105/50 81/106/50 
f 82/107/51 83/108/51 84/109/51 
f 83/108/52 82/107/52 85/110/52 
f 84/109/53 86/111/53 82/107/53 
f 86/111/53 84/109/53 87/112/53 
f 88/113/54 86/111/54 87/112/54 
f 86/111/55 88/113/55 89/114/55 
f 88/113/56 90/115/56 89/114/56 
f 90/115/53 88/113/53 91/116/53 
f 91/116/57 92/117/57 90/115/57 
f 92/117/58 91/116/58 93/118/58 
f 72/119/59 94/120/59 95/121/59 
f 95/121/59 94/120/59 84/109/59 
f 94/120/53 96/122/53 84/109/53 
f 84/109/53 96/122/53 87/112/53 
f 96/122/59 97/123/59 87/112/59 
f 87/112/59 97/123/59 98/124/59 
f 98/124/60 97/123/60 99/125/60 
f 98/124/60 99/125/60 100/126/60 
f 101/127/56 102/128/56 103/129/56 
f 98/124/31 88/113/31 87/112/31 
f 88/113/19 98/124/19 91/116/19 
f 98/124/20 93/118/20 91/116/20 
f 93/118/18 98/124/18 100/126/18 
f 104/130/61 23/23/61 20/26/61 
f 104/130/61 20/26/61 103/131/61 
f 92/132/26 103/129/26 18/133/26 
f 20/134/26 18/133/26 103/129/26 
f 92/117/62 18/18/62 16/16/62 
f 16/16/62 90/115/62 92/117/62 
f 16/16/26 15/15/26 90/115/26 
f 15/15/26 89/114/26 90/115/26 
f 89/114/63 15/15/63 12/12/63 
f 89/114/63 12/12/63 86/111/63 
f 86/111/29 12/12/29 9/9/29 
f 9/9/29 82/107/29 86/111/29 
f 11/11/64 85/110/64 82/107/64 
f 11/11/64 82/107/64 9/9/64 
f 79/135/65 7/136/65 5/137/65 
f 7/136/65 79/135/65 81/138/65 
f 76/139/66 79/135/66 3/140/66 
f 5/137/66 3/140/66 79/135/66 
f 3/140/67 2/141/67 76/139/67 
f 2/141/67 77/142/67 76/139/67 
f 105/143/68 2/30/68 26/28/68 
f 2/30/68 105/143/68 77/144/68 
f 105/143/69 26/28/69 23/23/69 
f 23/23/69 104/130/69 105/143/69 
f 106/145/46 66/146/46 65/147/46 
f 106/145/47 65/147/47 107/148/47 
f 107/148/47 65/147/47 63/149/47 
s 1
f 107/148/70 63/149/37 108/150/70 
s off
f 108/150/71 63/149/71 64/151/71 
f 109/152/72 59/66/72 94/153/72 
f 59/66/73 109/152/73 60/67/73 
f 94/153/53 58/65/53 96/154/53 
f 58/65/53 94/153/53 59/66/53 
s 1
f 58/65/74 110/155/75 96/154/54 
f 110/155/75 58/65/74 57/64/76 
f 110/155/75 56/63/53 111/156/53 
f 56/63/53 110/155/75 57/64/76 
s off
f 111/156/57 55/62/57 112/157/57 
f 55/62/57 111/156/57 56/63/57 
f 54/60/53 103/129/53 102/128/53 
f 104/130/77 54/158/77 53/159/77 
f 54/158/77 104/130/77 103/131/77 
s 1
f 104/130/78 53/159/78 67/160/40 
f 104/130/78 67/160/40 105/143/78 
s off
f 105/143/79 67/160/79 66/161/79 
f 105/143/79 66/161/79 77/144/79 
s 1
f 77/102/46 66/146/42 106/145/46 
f 77/102/46 106/145/46 75/100/80 
s off
f 97/162/27 96/154/27 110/155/27 
f 97/162/26 110/155/26 111/156/26 
f 97/162/28 112/157/28 99/163/28 
f 112/157/29 97/162/29 111/156/29 
s 1
f 113/164/56 85/110/56 114/165/56 
f 85/110/56 113/164/56 83/108/56 
s off
f 11/11/26 69/81/26 85/110/26 
f 69/81/26 114/165/26 85/110/26 
f 113/166/44 114/167/44 95/168/44 
f 114/167/44 69/169/44 95/168/44 
f 68/170/44 30/171/44 69/169/44 
f 30/171/44 95/168/44 69/169/44 
s 1
f 62/69/45 60/67/35 71/172/53 
f 71/172/53 60/67/35 109/152/59 
s off
f 95/121/18 84/109/18 83/108/18 
f 95/121/31 83/108/31 113/164/31 
f 72/173/28 109/152/28 94/153/28 
f 109/152/26 72/173/26 71/172/26 
f 95/168/44 30/171/44 31/85/44 
f 31/85/44 72/88/44 95/168/44 
f 55/61/53 102/128/53 112/174/53 
f 55/61/53 54/60/53 102/128/53 
f 115/175/27 99/176/27 112/174/27 
f 115/175/27 112/174/27 102/128/27 
f 99/176/53 115/175/53 100/177/53 
f 100/177/53 115/175/53 116/178/53 
f 116/178/18 93/179/18 100/177/18 
f 93/179/18 116/178/18 101/127/18 
f 92/132/53 101/127/53 103/129/53 
f 101/127/53 92/132/53 93/179/53 
f 102/180/44 101/181/44 115/182/44 
f 116/183/44 115/182/44 101/181/44 
f 28/184/81 1/185/81 75/186/81 
f 28/184/81 75/186/81 106/187/81 
f 106/188/82 39/189/82 28/190/82 
f 39/189/82 106/188/82 107/191/82 
s 1
f 4/192/83 75/186/80 1/185/16 
f 75/186/80 4/192/83 78/193/83 
s off
f 41/194/84 39/189/84 107/191/84 
f 41/194/84 107/191/84 108/195/84 
f 6/196/85 78/193/85 4/192/85 
f 78/193/85 6/196/85 80/197/85 
f 81/106/59 108/150/59 64/151/59 
f 108/150/59 81/106/59 80/105/59 
f 6/196/44 108/195/44 80/197/44 
f 108/195/44 6/196/44 41/194/44 
f 7/7/7 41/45/7 6/6/7 
f 41/45/7 7/7/7 42/46/7 
f 81/138/81 64/73/81 7/136/81 
f 42/70/81 7/136/81 64/73/81 
# 232 faces

