# 3ds Max Wavefront OBJ Exporter v0.97b - (c)2007 guruware
# File Created: 18.01.2014 12:51:59

mtllib SeeleSchneider_Blade.mtl

#
# object pCube2
#

v  -3.7683 76.3627 1.9286
v  3.7683 76.3627 1.9286
v  3.7683 249.3200 1.9286
v  -3.7683 249.3200 1.9286
v  3.7683 249.3200 -1.9286
v  -3.7683 249.3200 -1.9286
v  3.7683 76.3627 -1.9286
v  -3.7683 76.3627 -1.9286
# 8 vertices

vn 0.0000 -0.0000 1.0000
vn 0.0000 1.0000 0.0000
vn 0.0000 0.0000 -1.0000
vn 1.0000 0.0000 -0.0000
vn -1.0000 0.0000 -0.0000
# 5 vertex normals

vt 0.7876 0.0020 0.0000
vt 0.8492 0.0020 0.0000
vt 0.8492 0.9980 0.0000
vt 0.7876 0.9980 0.0000
vt 0.7319 0.9851 0.0000
vt 0.7319 0.9236 0.0000
vt 0.7643 0.9236 0.0000
vt 0.7643 0.9851 0.0000
vt 0.8564 0.0020 0.0000
vt 0.9179 0.0020 0.0000
vt 0.9179 0.9980 0.0000
vt 0.8564 0.9980 0.0000
vt 0.9249 0.0020 0.0000
vt 0.9573 0.0020 0.0000
vt 0.9573 0.9980 0.0000
vt 0.9249 0.9980 0.0000
vt 0.9638 0.0020 0.0000
vt 0.9962 0.0020 0.0000
vt 0.9962 0.9980 0.0000
vt 0.9638 0.9980 0.0000
# 20 texture coords

g pCube2
usemtl lambert1
s off
f 1/1/1 2/2/1 3/3/1 
f 3/3/1 4/4/1 1/1/1 
f 4/5/2 3/6/2 5/7/2 
f 5/7/2 6/8/2 4/5/2 
f 6/9/3 5/10/3 7/11/3 
f 7/11/3 8/12/3 6/9/3 
f 2/13/4 7/14/4 5/15/4 
f 5/15/4 3/16/4 2/13/4 
f 8/17/5 1/18/5 4/19/5 
f 4/19/5 6/20/5 8/17/5 
# 10 faces

